# xmcd CD database file
#
# Track frame offsets:
#	150
#	39474
#	60368
#	93824
#	128246
#	150013
#	171629
#	202213
#	249612
#	261343
#	282729
#
# Disc length: 4291 seconds
#
# Revision: 0
# Processed by: cddbd v1.5.2PL0 Copyright (c) Steve Scherf et al.
# Submitted via: CDex 1.99.1
#
DISCID=9d10c10b
DTITLE=Tony Grey - Elevation
DYEAR=2013
DGENRE=Jazz
TTITLE0=Guiding Light
TTITLE1=Chicks Chums
TTITLE2=Freedom Jazz Dance
TTITLE3=Floating River Yangtze
TTITLE4=Galactic Samurai
TTITLE5=Elevation
TTITLE6=Walking In, Walking Out
TTITLE7=Dil Chahata Hai
TTITLE8=Solar
TTITLE9=Someday My Prince Will Come
TTITLE10=Nardis
EXTD=YEAR: 2013
EXTT0=
EXTT1=
EXTT2=
EXTT3=
EXTT4=
EXTT5=
EXTT6=
EXTT7=
EXTT8=
EXTT9=
EXTT10=
PLAYORDER=
